<?xml version="1.0" encoding="UTF-8" standalone="no"?>
<!-- Created with Inkscape (http://www.inkscape.org/) -->
<svg
   xmlns:dc="http://purl.org/dc/elements/1.1/"
   xmlns:cc="http://creativecommons.org/ns#"
   xmlns:rdf="http://www.w3.org/1999/02/22-rdf-syntax-ns#"
   xmlns:svg="http://www.w3.org/2000/svg"
   xmlns="http://www.w3.org/2000/svg"
   xmlns:sodipodi="http://sodipodi.sourceforge.net/DTD/sodipodi-0.dtd"
   xmlns:inkscape="http://www.inkscape.org/namespaces/inkscape"
   id="svg2"
   sodipodi:version="0.32"
   inkscape:version="0.46"
   width="392.5"
   height="262.5"
   xml:space="preserve"
   sodipodi:docname="Grenoble INP.svg"
   inkscape:output_extension="org.inkscape.output.svg.inkscape"><metadata
     id="metadata7"><rdf:RDF><cc:Work
         rdf:about=""><dc:format>image/svg+xml</dc:format><dc:type
           rdf:resource="http://purl.org/dc/dcmitype/StillImage" /></cc:Work></rdf:RDF></metadata><defs
     id="defs5"><inkscape:perspective
       sodipodi:type="inkscape:persp3d"
       inkscape:vp_x="0 : 526.18109 : 1"
       inkscape:vp_y="0 : 1000 : 0"
       inkscape:vp_z="744.09448 : 526.18109 : 1"
       inkscape:persp3d-origin="372.04724 : 350.78739 : 1"
       id="perspective9" /><clipPath
       clipPathUnits="userSpaceOnUse"
       id="clipPath19"><path
         d="M 0,2099.02 L 0,0 L 3139.51,0 L 3139.51,2099.02 L 0,2099.02 z"
         id="path21" /></clipPath></defs><sodipodi:namedview
     inkscape:window-height="726"
     inkscape:window-width="645"
     inkscape:pageshadow="2"
     inkscape:pageopacity="0.0"
     guidetolerance="10.0"
     gridtolerance="10.0"
     objecttolerance="10.0"
     borderopacity="1.0"
     bordercolor="#666666"
     pagecolor="#ffffff"
     id="base"
     showgrid="false"
     inkscape:zoom="1.4191083"
     inkscape:cx="196.25"
     inkscape:cy="131.25"
     inkscape:window-x="369"
     inkscape:window-y="25"
     inkscape:current-layer="g11" /><g
     id="g11"
     inkscape:groupmode="layer"
     inkscape:label="GrenobleINP"
     transform="matrix(1.25,0,0,-1.25,0,262.5)"><g
       id="g13"
       transform="scale(0.1,0.1)"><g
         id="g15"><g
           id="g17"
           clip-path="url(#clipPath19)"><path
             d="M 135.332,948.809 C 119.16,931.738 99.1016,924.551 76.6523,924.551 C 54.4922,924.551 35.332,932.641 20.6602,947.309 C -0.296875,968.262 0,991.922 0,1032.93 C 0,1073.96 -0.296875,1097.61 20.6602,1118.57 C 35.332,1133.24 53.8984,1141.32 76.6523,1141.32 C 121.855,1141.32 148.203,1111.68 154.199,1075.15 L 121.562,1075.15 C 116.172,1098.51 100.605,1112.28 76.6523,1112.28 C 64.0742,1112.28 52.6953,1107.19 45.2109,1099.11 C 34.7305,1087.73 32.3398,1075.75 32.3398,1032.93 C 32.3398,990.121 34.7305,977.852 45.2109,966.469 C 52.6953,958.379 64.0742,953.602 76.6523,953.602 C 90.7227,953.602 102.996,958.988 111.387,968.57 C 119.16,977.539 122.156,988.32 122.156,1002.1 L 122.156,1014.07 L 76.6523,1014.07 L 76.6523,1041.62 L 154.492,1041.62 L 154.492,1008.99 C 154.492,981.449 149.402,963.77 135.332,948.809"
             style="fill:#7b7979;fill-opacity:1;fill-rule:nonzero;stroke:none"
             id="path23" /><path
             d="M 371.855,1042.52 C 364.973,1049.41 359.59,1052.7 349.102,1052.7 C 332.637,1052.7 318.867,1039.52 318.867,1018.57 L 318.867,926.352 L 288.32,926.352 L 288.32,1078.15 L 318.262,1078.15 L 318.262,1061.68 C 326.055,1072.46 341.621,1079.94 358.691,1079.94 C 373.359,1079.94 384.434,1076.05 394.91,1065.57 L 371.855,1042.52"
             style="fill:#7b7979;fill-opacity:1;fill-rule:nonzero;stroke:none"
             id="path25" /><path
             d="M 586.465,1035.33 C 581.68,1046.71 570.898,1054.49 556.523,1054.49 C 542.148,1054.49 531.074,1046.71 526.289,1035.33 C 523.293,1028.45 522.695,1023.96 522.395,1014.67 L 590.652,1014.67 C 590.352,1023.96 589.453,1028.45 586.465,1035.33 z M 522.395,993.422 C 522.395,967.359 536.16,950.898 561.016,950.898 C 578.086,950.898 587.062,955.691 597.844,966.469 L 617.305,948.199 C 601.738,932.641 587.062,924.551 560.41,924.551 C 522.395,924.551 492.148,944.609 492.148,1002.4 C 492.148,1051.5 517.598,1079.94 556.523,1079.94 C 597.246,1079.94 620.898,1050 620.898,1006.9 L 620.898,993.422 L 522.395,993.422"
             style="fill:#7b7979;fill-opacity:1;fill-rule:nonzero;stroke:none"
             id="path27" /><path
             d="M 843.652,926.352 L 843.652,1018.87 C 843.652,1042.52 830.176,1052.7 813.105,1052.7 C 796.047,1052.7 781.672,1042.22 781.672,1018.87 L 781.672,926.352 L 751.133,926.352 L 751.133,1078.15 L 781.074,1078.15 L 781.074,1062.88 C 791.555,1074.25 806.223,1079.94 821.492,1079.94 C 837.062,1079.94 849.941,1074.85 858.918,1066.17 C 870.598,1054.8 874.188,1040.42 874.188,1023.36 L 874.188,926.352 L 843.652,926.352"
             style="fill:#7b7979;fill-opacity:1;fill-rule:nonzero;stroke:none"
             id="path29" /><path
             d="M 1089.45,1044.02 C 1083.77,1049.71 1075.98,1052.7 1067,1052.7 C 1058.02,1052.7 1050.53,1049.71 1044.84,1044.02 C 1035.57,1034.73 1034.37,1018.87 1034.37,1002.4 C 1034.37,985.93 1035.57,970.059 1044.84,960.781 C 1050.53,955.102 1058.02,951.801 1067,951.801 C 1075.98,951.801 1083.77,955.102 1089.45,960.781 C 1098.74,970.059 1099.93,985.93 1099.93,1002.4 C 1099.93,1018.87 1098.74,1034.73 1089.45,1044.02 z M 1112.51,942.52 C 1102.63,932.34 1087.66,924.551 1067,924.551 C 1046.34,924.551 1031.67,932.34 1021.79,942.52 C 1007.42,957.48 1003.83,976.648 1003.83,1002.4 C 1003.83,1027.85 1007.42,1047.01 1021.79,1061.98 C 1031.67,1072.16 1046.34,1079.94 1067,1079.94 C 1087.66,1079.94 1102.63,1072.16 1112.51,1061.98 C 1126.88,1047.01 1130.47,1027.85 1130.47,1002.4 C 1130.47,976.648 1126.88,957.48 1112.51,942.52"
             style="fill:#7b7979;fill-opacity:1;fill-rule:nonzero;stroke:none"
             id="path31" /><path
             d="M 1323.89,1052.7 C 1296.34,1052.7 1292.15,1029.35 1292.15,1002.4 C 1292.15,975.449 1296.34,951.801 1323.89,951.801 C 1351.43,951.801 1355.32,975.449 1355.32,1002.4 C 1355.32,1029.35 1351.43,1052.7 1323.89,1052.7 z M 1368.79,938.031 C 1360.41,929.648 1346.93,924.551 1331.67,924.551 C 1315.2,924.551 1302.92,928.75 1291.54,942.52 L 1291.54,926.352 L 1261.6,926.352 L 1261.6,1139.53 L 1292.15,1139.53 L 1292.15,1062.88 C 1303.22,1076.05 1315.8,1079.94 1331.96,1079.94 C 1347.24,1079.94 1360.41,1074.85 1368.79,1066.47 C 1384.06,1051.2 1385.86,1025.45 1385.86,1002.4 C 1385.86,979.34 1384.06,953.301 1368.79,938.031"
             style="fill:#7b7979;fill-opacity:1;fill-rule:nonzero;stroke:none"
             id="path33" /><path
             d="M 1557.71,926.352 C 1528.67,926.352 1516.09,945.809 1516.09,968.262 L 1516.09,1139.53 L 1546.64,1139.53 L 1546.64,970.059 C 1546.64,958.379 1550.83,952.398 1563.11,952.398 L 1576.58,952.398 L 1576.58,926.352 L 1557.71,926.352"
             style="fill:#7b7979;fill-opacity:1;fill-rule:nonzero;stroke:none"
             id="path35" /><path
             d="M 1778.94,1035.33 C 1774.14,1046.71 1763.37,1054.49 1748.99,1054.49 C 1734.62,1054.49 1723.54,1046.71 1718.75,1035.33 C 1715.76,1028.45 1715.16,1023.96 1714.86,1014.67 L 1783.13,1014.67 C 1782.82,1023.96 1781.92,1028.45 1778.94,1035.33 z M 1714.86,993.422 C 1714.86,967.359 1728.63,950.898 1753.49,950.898 C 1770.55,950.898 1779.53,955.691 1790.31,966.469 L 1809.78,948.199 C 1794.2,932.641 1779.53,924.551 1752.89,924.551 C 1714.86,924.551 1684.62,944.609 1684.62,1002.4 C 1684.62,1051.5 1710.07,1079.94 1748.99,1079.94 C 1789.72,1079.94 1813.37,1050 1813.37,1006.9 L 1813.37,993.422 L 1714.86,993.422"
             style="fill:#7b7979;fill-opacity:1;fill-rule:nonzero;stroke:none"
             id="path37" /><path
             d="M 2097.19,926.352 L 2149.5884,926.352 L 2149.5884,1139.528 L 2097.19,1139.528 L 2097.19,926.352 z"
             style="fill:#231f20;fill-opacity:1;fill-rule:nonzero;stroke:none"
             id="path39" /><path
             d="M 2403.17,926.352 L 2334.91,1033.54 L 2334.91,926.352 L 2282.51,926.352 L 2282.51,1139.53 L 2328.32,1139.53 L 2396.59,1032.35 L 2396.59,1139.53 L 2448.98,1139.53 L 2448.98,926.352 L 2403.17,926.352"
             style="fill:#231f20;fill-opacity:1;fill-rule:nonzero;stroke:none"
             id="path41" /><path
             d="M 2663.96,1092.52 L 2634.32,1092.52 L 2634.32,1049.41 L 2663.96,1049.41 C 2678.33,1049.41 2686.71,1059.88 2686.71,1070.96 C 2686.71,1082.04 2678.33,1092.52 2663.96,1092.52 z M 2666.35,1002.4 L 2634.32,1002.4 L 2634.32,926.352 L 2581.91,926.352 L 2581.91,1139.53 L 2666.35,1139.53 C 2713.65,1139.53 2739.11,1105.99 2739.11,1070.96 C 2739.11,1035.94 2713.65,1002.4 2666.35,1002.4"
             style="fill:#231f20;fill-opacity:1;fill-rule:nonzero;stroke:none"
             id="path43" /><path
             d="M 1823.62,1623.92 L 1827.71,1611.89 C 1880.66,1453.47 1907.52,1287.59 1907.52,1118.87 C 1907.52,888.262 1858.22,666.352 1761,459.281 L 1851.52,416.781 C 1955.03,637.25 2007.52,873.461 2007.52,1118.87 C 2007.52,1298.38 1978.93,1474.94 1922.53,1643.63 C 1922.51,1643.67 1918.19,1656.42 1918.19,1656.42 L 1823.62,1623.92"
             style="fill:#8d188f;fill-opacity:1;fill-rule:nonzero;stroke:none"
             id="path45" /><path
             d="M 2068.65,619.012 C 2009.99,417.379 1916.73,229.102 1791.47,59.3789 L 1871.92,0 C 2004.21,179.23 2102.71,378.102 2164.67,591.078 L 2068.65,619.012"
             style="fill:#c02229;fill-opacity:1;fill-rule:nonzero;stroke:none"
             id="path47" /><path
             d="M 1879.74,2046.98 C 2037.2,1788.61 2126.57,1491.75 2138.19,1188.46 L 2238.12,1192.29 C 2225.85,1512.58 2131.45,1826.12 1965.13,2099.02 L 1879.74,2046.98"
             style="fill:#f68712;fill-opacity:1;fill-rule:nonzero;stroke:none"
             id="path49" /><path
             d="M 2774.79,1667.06 C 2815.09,1488.27 2835.52,1303.84 2835.52,1118.87 C 2835.52,933.641 2815.03,748.98 2774.64,570 L 2872.18,547.988 C 2914.21,734.172 2935.52,926.25 2935.52,1118.87 C 2935.52,1311.22 2914.26,1503.06 2872.34,1689.04 L 2774.79,1667.06"
             style="fill:#80cc28;fill-opacity:1;fill-rule:nonzero;stroke:none"
             id="path51" /><path
             d="M 2489.99,889.391 C 2469.95,710.77 2427.56,535.289 2363.96,367.801 L 2457.46,332.32 C 2524.01,507.629 2568.4,691.301 2589.37,878.23 L 2489.99,889.391"
             style="fill:#04a1e6;fill-opacity:1;fill-rule:nonzero;stroke:none"
             id="path53" /><path
             d="M 2481.92,1438.36 C 2493.29,1358.52 2500.24,1276.96 2502.6,1195.94 L 2602.56,1198.85 C 2600.09,1283.59 2592.81,1368.91 2580.93,1452.45 L 2481.92,1438.36"
             style="fill:#04a1e6;fill-opacity:1;fill-rule:nonzero;stroke:none"
             id="path55" /><path
             d="M 2990.22,1647.51 C 3022.93,1478.89 3039.51,1305.52 3039.51,1132.2 C 3039.51,1111.94 3039.29,1091.59 3038.84,1071.73 L 3138.82,1069.48 C 3139.28,1090.09 3139.51,1111.2 3139.51,1132.2 C 3139.51,1311.89 3122.31,1491.68 3088.39,1666.55 L 2990.22,1647.51"
             style="fill:#2250a9;fill-opacity:1;fill-rule:nonzero;stroke:none"
             id="path57" /></g></g></g></g></svg>